<?xml version="1.0" standalone="no"?>
<!DOCTYPE svg PUBLIC "-//W3C//DTD SVG 20010904//EN"
 "http://www.w3.org/TR/2001/REC-SVG-20010904/DTD/svg10.dtd">
<svg version="1.0" xmlns="http://www.w3.org/2000/svg"
 width="225.000000pt" height="225.000000pt" viewBox="0 0 225.000000 225.000000"
 preserveAspectRatio="xMidYMid meet">
<metadata>
Created by potrace 1.14, written by Peter Selinger 2001-2017
</metadata>
<g transform="translate(0.000000,225.000000) scale(0.100000,-0.100000)"
fill="#000000" stroke="none">
<path d="M1072 2133 c-11 -10 -48 -85 -82 -168 -35 -82 -66 -158 -71 -167 -8
-15 -29 -6 -164 77 -170 104 -204 114 -243 72 -30 -32 -28 -64 17 -252 21 -88
37 -161 36 -163 -2 -2 -83 -10 -181 -18 -99 -8 -189 -19 -201 -25 -30 -16 -49
-64 -37 -96 5 -14 70 -78 144 -142 74 -64 134 -121 134 -126 0 -5 -60 -62
-134 -126 -74 -64 -139 -128 -144 -142 -12 -32 7 -80 37 -96 12 -6 102 -17
201 -25 98 -8 179 -16 181 -18 1 -2 -15 -75 -36 -163 -46 -191 -48 -223 -16
-253 42 -40 74 -30 242 72 135 83 156 93 164 78 5 -9 36 -84 71 -167 34 -82
71 -158 82 -167 26 -23 80 -23 106 -1 11 10 48 86 82 168 35 83 66 158 71 167
8 15 29 6 164 -77 170 -104 204 -114 243 -72 30 32 28 64 -17 252 -21 88 -37
161 -36 163 2 2 83 10 181 18 99 8 189 19 201 25 30 16 49 64 37 96 -5 14 -70
78 -144 142 -74 64 -134 121 -134 126 0 5 60 62 134 126 74 64 139 128 144
142 12 32 -7 80 -37 96 -12 6 -102 17 -201 25 -98 8 -179 16 -181 18 -1 2 15
75 36 163 46 191 48 223 16 253 -42 40 -74 30 -242 -73 -135 -83 -156 -92
-164 -77 -5 9 -36 85 -71 167 -34 83 -71 158 -82 168 -11 9 -35 17 -53 17 -18
0 -42 -8 -53 -17z m112 -202 c31 -74 56 -134 56 -135 0 -1 -52 -1 -115 -1 -73
0 -114 4 -111 10 31 79 110 264 112 262 1 -1 27 -62 58 -136z m-364 -200 c0
-4 -10 -12 -23 -18 -13 -6 -53 -34 -90 -62 -43 -32 -69 -46 -72 -38 -2 6 -16
64 -30 127 -15 63 -29 123 -32 133 -3 12 35 -7 121 -59 69 -41 126 -79 126
-83z m829 24 c-16 -72 -32 -136 -34 -142 -3 -8 -29 6 -72 38 -37 28 -78 56
-90 62 -13 6 -22 15 -20 20 2 8 239 156 244 153 1 -1 -11 -60 -28 -131z m-375
-61 c199 -51 369 -221 420 -420 20 -79 20 -219 0 -298 -51 -199 -221 -369
-420 -420 -34 -9 -101 -16 -149 -16 -48 0 -115 7 -149 16 -199 51 -369 221
-420 420 -20 79 -20 219 0 298 50 195 213 361 409 417 78 23 227 24 309 3z
m-766 -301 c-12 -27 -28 -76 -37 -110 l-16 -63 -114 98 c-84 71 -109 98 -95
100 41 5 201 19 241 21 l42 1 -21 -47z m1456 28 l59 -6 -114 -97 -114 -98 -16
63 c-9 34 -25 84 -37 110 l-22 49 93 -7 c50 -4 119 -10 151 -14z m-1456 -564
l22 -49 -93 7 c-50 4 -119 10 -151 14 l-59 6 114 97 114 98 16 -63 c9 -34 25
-84 37 -110z m1416 62 l99 -84 -59 -6 c-33 -4 -101 -10 -151 -14 l-93 -7 24
54 c13 29 29 79 36 111 12 51 15 56 29 44 9 -8 60 -52 115 -98z m-1127 -382
c13 -6 23 -14 23 -18 0 -4 -57 -42 -126 -83 -86 -52 -124 -71 -121 -59 3 10
17 70 32 133 14 63 28 121 30 127 3 8 29 -6 72 -38 37 -28 77 -56 90 -62z
m847 -22 c15 -66 30 -128 32 -138 4 -12 -34 7 -120 59 -69 41 -126 78 -126 82
0 4 22 20 48 35 27 16 66 44 88 62 21 18 42 30 45 27 3 -4 18 -61 33 -127z
m-404 -61 c0 -2 -112 -269 -114 -271 -2 -2 -81 183 -112 262 -3 6 38 10 111
10 63 0 115 0 115 -1z"/>
<path d="M834 1369 c-34 -10 -104 -80 -104 -103 0 -18 27 -46 44 -46 7 0 27
16 46 35 44 46 75 46 123 0 32 -30 41 -34 58 -25 30 16 33 35 12 70 -34 58
-114 89 -179 69z"/>
<path d="M1324 1369 c-34 -10 -104 -80 -104 -103 0 -18 27 -46 44 -46 7 0 27
16 46 35 45 46 78 46 125 0 30 -31 38 -34 56 -25 30 16 33 35 12 70 -34 58
-114 89 -179 69z"/>
<path d="M836 1074 c-23 -22 -20 -35 22 -94 68 -97 192 -159 294 -147 70 9
150 48 202 100 74 75 94 137 47 152 -28 9 -43 -2 -76 -53 -17 -27 -51 -59 -78
-76 -105 -65 -238 -38 -312 62 -50 68 -54 72 -70 72 -7 0 -21 -7 -29 -16z"/>
</g>
</svg>
